<svg width="24" height="28" viewBox="0 0 24 28" fill="none" xmlns="http://www.w3.org/2000/svg">
<path d="M17.7589 12.6268C17.8768 12.675 17.9839 12.7286 18.0964 12.7768C19.6607 13.5321 20.8071 14.6625 21.4071 16.0661C22.2482 18.0214 22.3286 21.1982 19.7839 23.7375C17.8446 25.6768 15.4821 26.55 12.1446 26.5768H12.1286C8.36785 26.55 5.48035 25.2857 3.53571 22.8161C1.80536 20.6196 0.916069 17.5607 0.883926 13.7304V13.7036C0.910712 9.87321 1.8 6.81429 3.53036 4.61786C5.475 2.14821 8.36785 0.883928 12.1286 0.857142H12.1446C15.9107 0.883928 18.8357 2.14286 20.8393 4.60179C21.825 5.81786 22.5536 7.28036 23.0143 8.97857L20.85 9.55714C20.4696 8.175 19.8964 6.99643 19.125 6.05357C17.5607 4.13571 15.2143 3.15 12.1339 3.12857C9.08036 3.15536 6.77143 4.13571 5.26607 6.04286C3.8625 7.82679 3.13393 10.4089 3.10714 13.7143C3.13393 17.0196 3.8625 19.6018 5.26607 21.3911C6.76607 23.2982 9.08036 24.2786 12.1339 24.3054C14.8875 24.2839 16.7089 23.6304 18.225 22.1143C19.9554 20.3893 19.9232 18.2679 19.3714 16.9768C19.0446 16.2161 18.4554 15.5839 17.6625 15.1071C17.4643 16.5482 17.0304 17.6946 16.3393 18.5786C15.4232 19.7464 14.1214 20.3786 12.4446 20.4696C11.1804 20.5393 9.96428 20.2339 9.02143 19.6125C7.90714 18.8732 7.25357 17.7482 7.18393 16.4357C7.05 13.8482 9.09643 11.9893 12.2839 11.8071C13.4143 11.7429 14.475 11.7911 15.4554 11.9571C15.3268 11.1643 15.0643 10.5321 14.6732 10.0714C14.1375 9.44464 13.3018 9.12321 12.1982 9.11786H12.1607C11.2714 9.11786 10.0714 9.36429 9.30535 10.5268L7.4625 9.2625C8.49107 7.70357 10.1571 6.84643 12.1661 6.84643H12.2089C15.5625 6.86786 17.5607 8.9625 17.7643 12.6161L17.7536 12.6268H17.7589ZM9.40178 16.3125C9.47143 17.6571 10.9232 18.2839 12.3268 18.2036C13.6982 18.1286 15.2518 17.5929 15.5143 14.2821C14.8071 14.1268 14.025 14.0464 13.1893 14.0464C12.9321 14.0464 12.675 14.0518 12.4179 14.0679C10.1196 14.1964 9.35357 15.3107 9.40714 16.3071L9.40178 16.3125Z" fill="white"/>
</svg>
